<svg width="2048" height="250" viewBox="0 0 2048 250" fill="none" xmlns="http://www.w3.org/2000/svg">
<g clip-path="url(#clip0_57_5)">
<path fill-rule="evenodd" clip-rule="evenodd" d="M0 18.5V37L84.75 37.004L169.5 37.007L172.701 38.96C174.462 40.033 176.712 42.394 177.701 44.206L179.5 47.5V67V86.5L177.5 90.435C176.4 92.6 174.23 95.3 172.677 96.435L169.854 98.5L104.927 98.771L40 99.043V78.521V58H20H0V126V194H20H40V165V136L107.75 135.992C148.97 135.988 177.96 135.586 181.783 134.965C195.855 132.682 208.006 123.708 214.44 110.848C219.762 100.209 220.164 96.541 219.815 61.781L219.5 30.5L216.797 24.732C211.426 13.27 199.104 4.063 185.201 1.121C181.511 0.341 152.578 0 89.951 0H0V18.5ZM1340.25 1.545C1328.55 4.696 1319.61 11.96 1314.43 22.522L1311.5 28.5L1311.19 55.288L1310.88 82.076L1312.5 87.788C1315.69 99.042 1324.52 108.529 1336.28 113.358L1341.5 115.5L1413.04 115.602L1484.58 115.705L1486.7 116.841C1487.87 117.466 1489.59 119.974 1490.52 122.414L1492.21 126.852L1491.84 138.676L1491.46 150.5L1489.61 153.262C1488.59 154.781 1486.57 156.356 1485.13 156.762C1483.68 157.168 1455.03 157.5 1421.46 157.5H1360.41L1357.72 155.736C1353.59 153.031 1351.87 149.639 1351.27 143.036L1350.72 137H1330.86H1311V151.465V165.93L1312.62 170.715C1316.04 180.805 1324.53 188.586 1335.9 192.039L1342.51 194.046L1423.51 193.773L1504.5 193.5L1510.2 191.196C1518.29 187.928 1525.34 181.264 1528.19 174.208L1530.49 168.5L1530.49 137L1530.5 105.5L1528.6 100.032C1526.04 92.669 1518.51 85.141 1510.47 81.904L1504.5 79.5L1431.82 79L1359.14 78.5L1356.32 76.406C1352.9 73.866 1351.19 68.136 1351.08 58.799C1350.97 49.487 1352.6 42.729 1355.64 39.871L1358.16 37.5L1420.82 37.228C1464.35 37.039 1484.28 37.288 1486.11 38.045C1489.6 39.493 1491.14 43.088 1491.76 51.25L1492.27 58H1511.63H1531V45.684C1531 38.91 1530.51 30.715 1529.91 27.474C1527.23 12.993 1519.38 5.188 1503.78 1.511L1497.5 0.03L1421.5 0.081L1345.5 0.132L1340.25 1.545ZM2008 19.5V39H2028H2048V19.5V0H2028H2008V19.5ZM276.387 55.999C259.036 58.542 246.517 68.472 239.715 85.09L237.5 90.5L237.208 142.25L236.916 194H256.91H276.904L277.202 149.25L277.5 104.5L279.5 100.565C280.6 98.4 282.77 95.7 284.322 94.565L287.143 92.5L321.572 92.213L356 91.925V73.463V55L318.75 55.125C298.262 55.193 279.199 55.587 276.387 55.999ZM405.698 57.096C393.753 59.907 382.046 69.099 376.774 79.807L373.5 86.458V121.479V156.5L375.801 163.159C380.491 176.729 391.791 188.002 404.701 191.989L411.211 194H449.605H488V176.052V158.104L456.25 157.802L424.5 157.5L421.162 155.679C418.998 154.498 417.064 152.213 415.662 149.179L413.5 144.5V124.5V104.5L415.5 100.565C416.6 98.4 418.77 95.7 420.322 94.565L423.144 92.5L465.072 92.209L507 91.917V142.959V194H527H547V125V56L478.25 56.1C440.438 56.156 407.789 56.603 405.698 57.096ZM565.177 57.379C565.355 58.138 577.875 89.178 593 126.358L620.5 193.958L649.143 193.979L677.786 194L678.274 192.75C678.542 192.063 691.021 161.575 706.004 125C720.987 88.425 733.467 57.929 733.737 57.232L734.228 55.963L710.486 56.232L686.745 56.5L668.16 106.737C657.938 134.368 649.269 156.643 648.894 156.237C648.52 155.832 639.953 133.114 629.857 105.752L611.5 56.005L588.177 56.002L564.853 56L565.177 57.379ZM770.348 57.42C757.689 60.49 746.592 69.02 741.34 79.717L738.5 85.5L738.213 120.366L737.925 155.232L739.551 160.866C743.267 173.745 752.442 184.473 764.712 190.285L771.5 193.5L831.25 193.787L891 194.074V176.072V158.069L839.572 157.785L788.145 157.5L785.322 155.395C783.77 154.238 781.6 151.763 780.5 149.895L778.5 146.5L778.175 127.385C777.805 105.577 778.544 101.256 783.49 96.31L786.8 93H823.999H861.198L864.46 94.548C867.771 96.119 870.756 100.722 869.298 102.008C868.859 102.395 852.413 105.354 832.75 108.584L797 114.457V129.729C797 139.091 797.381 145 797.985 145C800.968 145 891.994 130.782 895.243 129.809C900.836 128.133 907.502 121.862 909.674 116.232L911.5 111.5L911.487 99.5L911.474 87.5L908.382 81C902.62 68.891 892.167 60.563 878.959 57.559L872.105 56L823.803 56.085L775.5 56.17L770.348 57.42ZM959 57.886C946.182 62.03 936.981 69.538 932.188 79.764L929.5 85.5L929.191 120L928.883 154.5L930.56 160.779C933.845 173.074 943.683 184.585 955.82 190.335L962.5 193.5L1003.25 193.802L1044 194.104V176.114V158.125L1011.57 157.813L979.143 157.5L976.321 155.435C974.77 154.3 972.6 151.6 971.5 149.435L969.5 145.5L969.193 125.273L968.886 105.046L970.855 100.594C972.133 97.707 973.998 95.502 976.162 94.321L979.5 92.5H1021H1062.5V146V199.5L1060.32 204.223C1058.99 207.096 1056.84 209.739 1054.82 210.97L1051.5 212.993L856.5 213.016L661.5 213.04L671.5 222.428C678.079 228.604 681.158 232.148 680.5 232.787C679.95 233.322 675.318 237.414 670.207 241.88L660.915 250H861.01H1061.1L1067.96 248.441C1085.26 244.506 1098.67 230.338 1101.92 212.566C1102.63 208.645 1103 181.093 1103 131.316V56L1033.75 56.054L964.5 56.108L959 57.886ZM1148.77 58.345C1135.54 62.855 1124.84 73.054 1121.48 84.367L1120 89.363L1120.02 121.932C1120.04 140.237 1120.49 156.422 1121.06 158.888C1122.76 166.24 1126.91 173.785 1132.7 180.041L1138.21 185.995L1145.8 189.747L1153.39 193.5L1194.19 193.802L1235 194.104V176.114V158.125L1202.57 157.813L1170.14 157.5L1167.32 155.435C1165.77 154.3 1163.6 151.6 1162.5 149.435L1160.5 145.5V124V102.5L1162.76 98.868C1164 96.87 1166.48 94.62 1168.26 93.868L1171.5 92.5H1212.5H1253.5L1253.76 143.25L1254.02 194H1274.01H1294V125V56L1224.75 56.026L1155.5 56.052L1148.77 58.345ZM1580.62 57.112C1568.42 59.977 1556.53 69.151 1551.35 79.699L1548.5 85.5L1548.21 120.447L1547.93 155.394L1549.92 161.947C1554.4 176.648 1564.5 187.116 1578.89 191.963L1584.94 194H1643.47H1702V176V158L1652.75 157.994C1620.33 157.991 1602.13 157.616 1599.5 156.899C1594.04 155.411 1591.24 152.535 1589.48 146.627L1588 141.637L1588.01 124.568C1588.01 105.675 1588.77 101.404 1592.98 96.697L1595.84 93.5H1635H1674.16L1677.14 96.829C1678.78 98.661 1679.94 100.679 1679.73 101.315C1679.5 102.005 1664.73 104.893 1643.17 108.465L1607 114.459V129.729V145H1608.28C1612.82 145 1703.3 130.692 1706.67 129.441C1712.41 127.313 1718.49 120.453 1720.43 113.913C1722.43 107.185 1722.44 94.137 1720.46 86.46C1716.84 72.452 1705.21 61.634 1689.32 57.495L1683.58 56L1634.04 56.1C1606.79 56.156 1582.75 56.611 1580.62 57.112ZM1771.5 57.402C1764.6 59.591 1758.84 63.042 1753.23 68.346C1746.86 74.367 1743.48 79.787 1740.88 88.125L1739 94.178V144.089V194H1759H1779V151.182V108.363L1780.48 103.373C1783.53 93.114 1788.02 91.647 1814.66 92.204L1833.5 92.597L1836.28 93.97C1840.21 95.915 1842.72 100.526 1843.93 108.024C1844.54 111.765 1844.99 131.287 1844.99 154.25L1845 194H1864.97H1884.94L1885.22 149.25L1885.5 104.5L1887.5 100.565C1888.6 98.4 1890.77 95.7 1892.32 94.565L1895.15 92.5H1917.32H1939.5L1942.73 94.456C1944.51 95.532 1946.76 98.007 1947.73 99.956L1949.5 103.5L1949.78 148.75L1950.06 194H1970.58H1991.1L1990.77 143.25L1990.45 92.5L1988.33 86.894C1982.7 72.011 1972.75 62.202 1958.91 57.895L1952.82 56H1917.59H1882.36L1876.93 57.584C1873.94 58.456 1870.02 60.029 1868.2 61.08L1864.9 62.991L1860.7 60.843C1858.39 59.661 1854.25 58.094 1851.5 57.359L1846.5 56.024L1811 56.079L1775.5 56.134L1771.5 57.402ZM2008 125V194H2028H2048V125V56H2028H2008V125ZM591.468 222.459L601.437 231.826L599.275 233.663C598.086 234.673 593.48 238.65 589.04 242.5L580.966 249.5L591.007 249.785L601.047 250.07L611.524 240.791C617.286 235.687 621.971 231.283 621.936 231.005C621.9 230.727 617.192 226.563 611.472 221.75L601.074 213L591.287 213.046L581.5 213.092L591.468 222.459ZM631.5 222.46L641.5 231.858L638.261 234.679C636.479 236.23 631.894 240.2 628.072 243.5L621.122 249.5L631.114 249.786L641.106 250.071L651.572 240.842C657.328 235.767 661.917 231.319 661.769 230.958C661.621 230.598 656.92 226.41 651.323 221.651L641.145 213L631.323 213.031L621.5 213.063L631.5 222.46ZM564 231.425V247.198L570.075 241.849C573.416 238.907 577.517 235.345 579.188 233.934L582.226 231.367L575.363 225.478C571.588 222.239 567.487 218.703 566.25 217.62L564 215.651V231.425Z" fill="white"/>
</g>
<defs>
<clipPath id="clip0_57_5">
<rect width="2048" height="250" fill="white"/>
</clipPath>
</defs>
</svg>
